<mxfile host="app.diagrams.net" modified="2023-05-09T08:01:27.472Z" agent="Mozilla/5.0 (Windows NT 10.0; Win64; x64) AppleWebKit/537.36 (KHTML, like Gecko) Chrome/112.0.0.0 Safari/537.36" etag="FAMf6nLPyGZ6P3lOqj38" version="21.2.9" type="github">
  <diagram name="Page-1" id="j5oYwbtTdqT3GnUpyUHV">
    <mxGraphModel dx="840" dy="433" grid="1" gridSize="10" guides="1" tooltips="1" connect="1" arrows="1" fold="1" page="1" pageScale="1" pageWidth="850" pageHeight="1100" math="0" shadow="0">
      <root>
        <mxCell id="0" />
        <mxCell id="1" parent="0" />
        <mxCell id="Y2vp1ob7tkvHwA7jq011-3" value="" style="edgeStyle=orthogonalEdgeStyle;rounded=0;orthogonalLoop=1;jettySize=auto;html=1;" edge="1" parent="1" source="Y2vp1ob7tkvHwA7jq011-1" target="Y2vp1ob7tkvHwA7jq011-2">
          <mxGeometry relative="1" as="geometry" />
        </mxCell>
        <mxCell id="Y2vp1ob7tkvHwA7jq011-1" value="Starting Point" style="rounded=0;whiteSpace=wrap;html=1;" vertex="1" parent="1">
          <mxGeometry x="170" y="120" width="120" height="60" as="geometry" />
        </mxCell>
        <mxCell id="Y2vp1ob7tkvHwA7jq011-5" value="" style="edgeStyle=orthogonalEdgeStyle;rounded=0;orthogonalLoop=1;jettySize=auto;html=1;" edge="1" parent="1" source="Y2vp1ob7tkvHwA7jq011-2" target="Y2vp1ob7tkvHwA7jq011-4">
          <mxGeometry relative="1" as="geometry" />
        </mxCell>
        <mxCell id="Y2vp1ob7tkvHwA7jq011-7" value="" style="edgeStyle=orthogonalEdgeStyle;rounded=0;orthogonalLoop=1;jettySize=auto;html=1;" edge="1" parent="1" source="Y2vp1ob7tkvHwA7jq011-2" target="Y2vp1ob7tkvHwA7jq011-6">
          <mxGeometry relative="1" as="geometry" />
        </mxCell>
        <mxCell id="Y2vp1ob7tkvHwA7jq011-2" value="Decision Point" style="rounded=0;whiteSpace=wrap;html=1;" vertex="1" parent="1">
          <mxGeometry x="170" y="260" width="120" height="60" as="geometry" />
        </mxCell>
        <mxCell id="Y2vp1ob7tkvHwA7jq011-4" value="YES" style="ellipse;whiteSpace=wrap;html=1;rounded=0;" vertex="1" parent="1">
          <mxGeometry x="270" y="400" width="100" height="80" as="geometry" />
        </mxCell>
        <mxCell id="Y2vp1ob7tkvHwA7jq011-6" value="No" style="ellipse;whiteSpace=wrap;html=1;rounded=0;" vertex="1" parent="1">
          <mxGeometry x="90" y="400" width="110" height="80" as="geometry" />
        </mxCell>
      </root>
    </mxGraphModel>
  </diagram>
</mxfile>
